<?xml version="1.0" encoding="UTF-8" standalone="no"?>
<!DOCTYPE svg PUBLIC "-//W3C//DTD SVG 1.1//EN"
 "http://www.w3.org/Graphics/SVG/1.1/DTD/svg11.dtd">
<!-- Generated by graphviz version 2.38.0 (20140413.2041)
 -->
<!-- Title: G Pages: 1 -->
<svg width="138pt" height="508pt"
 viewBox="0.00 0.00 138.01 508.00" xmlns="http://www.w3.org/2000/svg" xmlns:xlink="http://www.w3.org/1999/xlink">
<g id="graph0" class="graph" transform="scale(1 1) rotate(0) translate(4 504)">
<title>G</title>
<polygon fill="white" stroke="none" points="-4,4 -4,-504 134.011,-504 134.011,4 -4,4"/>
<g id="clust1" class="cluster"><title>cluster_Global</title>
<path fill="none" stroke="gray" d="M20,-8C20,-8 110.011,-8 110.011,-8 116.011,-8 122.011,-14 122.011,-20 122.011,-20 122.011,-480 122.011,-480 122.011,-486 116.011,-492 110.011,-492 110.011,-492 20,-492 20,-492 14,-492 8,-486 8,-480 8,-480 8,-20 8,-20 8,-14 14,-8 20,-8"/>
<text text-anchor="middle" x="65.0054" y="-479.2" font-family="Times,serif" font-size="11.00" fill="gray">Global</text>
</g>
<g id="clust2" class="cluster"><title>cluster_\SalsaPHP</title>
<path fill="none" stroke="gray" d="M28,-16C28,-16 102.011,-16 102.011,-16 108.011,-16 114.011,-22 114.011,-28 114.011,-28 114.011,-453 114.011,-453 114.011,-459 108.011,-465 102.011,-465 102.011,-465 28,-465 28,-465 22,-465 16,-459 16,-453 16,-453 16,-28 16,-28 16,-22 22,-16 28,-16"/>
<text text-anchor="middle" x="65.0054" y="-452.2" font-family="Times,serif" font-size="11.00" fill="gray">SalsaPHP</text>
</g>
<!-- \\SalsaPHP\\Action -->
<g id="node1" class="node"><title>\\SalsaPHP\\Action</title>
<polygon fill="none" stroke="black" points="92.6132,-438 37.3975,-438 37.3975,-402 92.6132,-402 92.6132,-438"/>
<text text-anchor="middle" x="65.0054" y="-416.7" font-family="Courier,monospace" font-size="11.00">Action</text>
</g>
<!-- \\SalsaPHP\\Group -->
<g id="node2" class="node"><title>\\SalsaPHP\\Group</title>
<polygon fill="none" stroke="black" points="92.0054,-384 38.0054,-384 38.0054,-348 92.0054,-348 92.0054,-384"/>
<text text-anchor="middle" x="65.0054" y="-362.7" font-family="Courier,monospace" font-size="11.00">Group</text>
</g>
<!-- \\SalsaPHP\\SalsaPHP -->
<g id="node3" class="node"><title>\\SalsaPHP\\SalsaPHP</title>
<polygon fill="none" stroke="black" points="106.016,-330 23.9946,-330 23.9946,-294 106.016,-294 106.016,-330"/>
<text text-anchor="start" x="32" y="-314.2" font-family="Courier,monospace" font-size="11.00">«abstract»</text>
<text text-anchor="start" x="38.6011" y="-303.2" font-family="Courier,monospace" font-size="11.00">SalsaPHP</text>
</g>
<!-- \\SalsaPHP\\Connect -->
<g id="node4" class="node"><title>\\SalsaPHP\\Connect</title>
<polygon fill="none" stroke="black" points="96.2132,-276 33.7975,-276 33.7975,-240 96.2132,-240 96.2132,-276"/>
<text text-anchor="middle" x="65.0054" y="-254.7" font-family="Courier,monospace" font-size="11.00">Connect</text>
</g>
<!-- \\SalsaPHP\\Query -->
<g id="node5" class="node"><title>\\SalsaPHP\\Query</title>
<polygon fill="none" stroke="black" points="92.0054,-222 38.0054,-222 38.0054,-186 92.0054,-186 92.0054,-222"/>
<text text-anchor="middle" x="65.0054" y="-200.7" font-family="Courier,monospace" font-size="11.00">Query</text>
</g>
<!-- \\SalsaPHP\\Supporter -->
<g id="node6" class="node"><title>\\SalsaPHP\\Supporter</title>
<polygon fill="none" stroke="black" points="102.916,-168 27.0946,-168 27.0946,-132 102.916,-132 102.916,-168"/>
<text text-anchor="middle" x="65.0054" y="-146.7" font-family="Courier,monospace" font-size="11.00">Supporter</text>
</g>
<!-- \\SalsaPHP\\Donate -->
<g id="node7" class="node"><title>\\SalsaPHP\\Donate</title>
<polygon fill="none" stroke="black" points="92.6132,-114 37.3975,-114 37.3975,-78 92.6132,-78 92.6132,-114"/>
<text text-anchor="middle" x="65.0054" y="-92.7" font-family="Courier,monospace" font-size="11.00">Donate</text>
</g>
<!-- \\SalsaPHP\\EmailBlast -->
<g id="node8" class="node"><title>\\SalsaPHP\\EmailBlast</title>
<polygon fill="none" stroke="black" points="106.016,-60 23.9946,-60 23.9946,-24 106.016,-24 106.016,-60"/>
<text text-anchor="middle" x="65.0054" y="-38.7" font-family="Courier,monospace" font-size="11.00">EmailBlast</text>
</g>
</g>
</svg>
